<svg preserveAspectRatio="none" width="100%" height="100%" overflow="visible" style="display: block;" viewBox="0 0 18 18" fill="none" xmlns="http://www.w3.org/2000/svg">
<g id="Group">
<g id="Vector">
</g>
<path id="Vector_2" d="M9 1.5C13.1422 1.5 16.5 4.85775 16.5 9C16.5 13.1422 13.1422 16.5 9 16.5C4.85775 16.5 1.5 13.1422 1.5 9C1.5 4.85775 4.85775 1.5 9 1.5ZM9 3C5.6865 3 3 5.6865 3 9C3 12.3135 5.6865 15 9 15C12.3135 15 15 12.3135 15 9C15 5.6865 12.3135 3 9 3ZM11.8748 5.50275C12.0525 5.37825 12.294 5.39925 12.447 5.553C12.6 5.706 12.6195 5.9475 12.4943 6.123C10.8593 8.4075 9.95925 9.6315 9.79575 9.79575C9.35625 10.2345 8.64375 10.2345 8.20425 9.79575C7.7655 9.35625 7.7655 8.64375 8.20425 8.20425C8.48475 7.9245 9.708 7.02375 11.8748 5.50275ZM13.125 8.25C13.539 8.25 13.875 8.586 13.875 9C13.875 9.414 13.539 9.75 13.125 9.75C12.711 9.75 12.375 9.414 12.375 9C12.375 8.586 12.711 8.25 13.125 8.25ZM4.875 8.25C5.289 8.25 5.625 8.586 5.625 9C5.625 9.414 5.289 9.75 4.875 9.75C4.461 9.75 4.125 9.414 4.125 9C4.125 8.586 4.461 8.25 4.875 8.25ZM6.6135 5.553C6.906 5.8455 6.906 6.32025 6.6135 6.6135C6.321 6.906 5.8455 6.906 5.553 6.6135C5.2605 6.321 5.2605 5.8455 5.553 5.553C5.8455 5.2605 6.32025 5.2605 6.6135 5.553ZM9 4.125C9.414 4.125 9.75 4.461 9.75 4.875C9.75 5.289 9.414 5.625 9 5.625C8.586 5.625 8.25 5.289 8.25 4.875C8.25 4.461 8.586 4.125 9 4.125Z" fill="var(--fill-0, white)"/>
</g>
</svg>
