<svg preserveAspectRatio="none" width="100%" height="100%" overflow="visible" style="display: block;" viewBox="0 0 18 18" fill="none" xmlns="http://www.w3.org/2000/svg">
<g id="Group">
<g id="Vector">
</g>
<path id="Vector_2" d="M14.5313 11.3272C15.0179 10.171 15.1299 8.89126 14.8516 7.66802C14.5732 6.44479 13.9185 5.33954 12.9794 4.50769C12.0404 3.67583 10.8643 3.1592 9.61638 3.03042C8.3685 2.90164 7.11164 3.1672 6.0225 3.78975L5.2785 2.487C6.41673 1.83646 7.70564 1.49578 9.01665 1.49893C10.3277 1.50209 11.6149 1.84898 12.75 2.505C16.1175 4.449 17.4075 8.6115 15.8378 12.0825L16.8443 12.663L13.7205 14.3235L13.5968 10.788L14.5313 11.3272V11.3272ZM3.46875 6.67275C2.98211 7.82902 2.87009 9.10874 3.14844 10.332C3.42679 11.5552 4.08151 12.6605 5.02056 13.4923C5.9596 14.3242 7.13574 14.8408 8.38362 14.9696C9.6315 15.0984 10.8884 14.8328 11.9775 14.2103L12.7215 15.513C11.5833 16.1635 10.2944 16.5042 8.98335 16.5011C7.67234 16.4979 6.38508 16.151 5.25 15.495C1.8825 13.551 0.5925 9.3885 2.16225 5.9175L1.155 5.33775L4.27875 3.67725L4.4025 7.21275L3.468 6.6735L3.46875 6.67275ZM6.375 10.5H10.5C10.5995 10.5 10.6948 10.4605 10.7652 10.3902C10.8355 10.3198 10.875 10.2245 10.875 10.125C10.875 10.0255 10.8355 9.93016 10.7652 9.85983C10.6948 9.78951 10.5995 9.75 10.5 9.75H7.5C7.00272 9.75 6.52581 9.55246 6.17418 9.20082C5.82254 8.84919 5.625 8.37228 5.625 7.875C5.625 7.37772 5.82254 6.90081 6.17418 6.54917C6.52581 6.19754 7.00272 6 7.5 6H8.25V5.25H9.75V6H11.625V7.5H7.5C7.40054 7.5 7.30516 7.53951 7.23484 7.60983C7.16451 7.68016 7.125 7.77554 7.125 7.875C7.125 7.97446 7.16451 8.06984 7.23484 8.14017C7.30516 8.21049 7.40054 8.25 7.5 8.25H10.5C10.9973 8.25 11.4742 8.44754 11.8258 8.79917C12.1775 9.15081 12.375 9.62772 12.375 10.125C12.375 10.6223 12.1775 11.0992 11.8258 11.4508C11.4742 11.8025 10.9973 12 10.5 12H9.75V12.75H8.25V12H6.375V10.5Z" fill="var(--fill-0, white)"/>
</g>
</svg>
