<svg preserveAspectRatio="none" width="100%" height="100%" overflow="visible" style="display: block;" viewBox="0 0 18 18" fill="none" xmlns="http://www.w3.org/2000/svg">
<g id="Group">
<g id="Vector">
</g>
<path id="Vector_2" d="M9 1.5C13.1422 1.5 16.5 4.85775 16.5 9C16.5 13.1422 13.1422 16.5 9 16.5C4.85775 16.5 1.5 13.1422 1.5 9H3C3 12.3135 5.6865 15 9 15C12.3135 15 15 12.3135 15 9C15 5.6865 12.3135 3 9 3C7.152 3 5.499 3.8355 4.39875 5.14875L6 6.75H1.5V2.25L3.33525 4.0845C4.71 2.502 6.738 1.5 9 1.5ZM9.75 5.25V8.68875L12.1823 11.121L11.121 12.1823L8.25 9.30975V5.25H9.75Z" fill="var(--fill-0, white)"/>
</g>
</svg>
