<svg preserveAspectRatio="none" width="100%" height="100%" overflow="visible" style="display: block;" viewBox="0 0 64 64" fill="none" xmlns="http://www.w3.org/2000/svg">
<g id="Group 47">
<g id="Ellipse 15">
<mask id="path-1-inside-1_5133_1816" fill="white">
<path d="M31.9421 0C25.6246 -7.5336e-08 19.4489 1.87337 14.196 5.38322C8.94317 8.89306 4.84907 13.8817 2.43145 19.7184C0.0138257 25.555 -0.618735 31.9775 0.613759 38.1737C1.84625 44.3699 4.88844 50.0614 9.35563 54.5286C13.8228 58.9958 19.5143 62.038 25.7105 63.2705C31.9067 64.5029 38.3292 63.8704 44.1658 61.4528C50.0025 59.0351 54.9911 54.941 58.501 49.6882C62.0108 44.4353 63.8842 38.2597 63.8842 31.9421H60.9607C60.9607 37.6814 59.2588 43.2919 56.0702 48.064C52.8816 52.836 48.3495 56.5554 43.047 58.7518C37.7446 60.9481 31.9099 61.5228 26.2809 60.4031C20.6518 59.2834 15.4812 56.5197 11.4229 52.4613C7.36455 48.403 4.6008 43.2324 3.48111 37.6033C2.36142 31.9743 2.93608 26.1396 5.13243 20.8372C7.32878 15.5347 11.0482 11.0026 15.8202 7.81404C20.5923 4.62543 26.2028 2.92352 31.9421 2.92352L31.9421 0Z"/>
</mask>
<path d="M31.9421 0C25.6246 -7.5336e-08 19.4489 1.87337 14.196 5.38322C8.94317 8.89306 4.84907 13.8817 2.43145 19.7184C0.0138257 25.555 -0.618735 31.9775 0.613759 38.1737C1.84625 44.3699 4.88844 50.0614 9.35563 54.5286C13.8228 58.9958 19.5143 62.038 25.7105 63.2705C31.9067 64.5029 38.3292 63.8704 44.1658 61.4528C50.0025 59.0351 54.9911 54.941 58.501 49.6882C62.0108 44.4353 63.8842 38.2597 63.8842 31.9421H60.9607C60.9607 37.6814 59.2588 43.2919 56.0702 48.064C52.8816 52.836 48.3495 56.5554 43.047 58.7518C37.7446 60.9481 31.9099 61.5228 26.2809 60.4031C20.6518 59.2834 15.4812 56.5197 11.4229 52.4613C7.36455 48.403 4.6008 43.2324 3.48111 37.6033C2.36142 31.9743 2.93608 26.1396 5.13243 20.8372C7.32878 15.5347 11.0482 11.0026 15.8202 7.81404C20.5923 4.62543 26.2028 2.92352 31.9421 2.92352L31.9421 0Z" stroke="var(--stroke-0, #4285F4)" stroke-width="3.10118" stroke-linecap="round" stroke-linejoin="round" mask="url(#path-1-inside-1_5133_1816)"/>
</g>
<rect id="Rectangle 19" x="31.4769" width="0.930353" height="7.75294" rx="0.465176" fill="var(--fill-0, #4285F4)"/>
<rect id="Rectangle 20" x="31.4769" y="56.1313" width="0.930353" height="7.75294" rx="0.465176" fill="var(--fill-0, #4285F4)"/>
<rect id="Rectangle 21" y="32.3895" width="0.930353" height="7.75294" rx="0.465176" transform="rotate(-90 0 32.3895)" fill="var(--fill-0, #4285F4)"/>
<rect id="Rectangle 22" x="56.1313" y="32.3895" width="0.930353" height="7.75294" rx="0.465176" transform="rotate(-90 56.1313 32.3895)" fill="var(--fill-0, #4285F4)"/>
<circle id="Ellipse 16" cx="32.0196" cy="31.8646" r="4.10906" fill="var(--fill-0, #202243)"/>
<path id="Vector 1" d="M22.1894 22.9053L32.2105 32.3" stroke="var(--stroke-0, #202243)" stroke-width="1.78947" stroke-linecap="round" stroke-linejoin="round"/>
<path id="Vector 2" d="M32.2105 32.3L51.0895 13.4211" stroke="var(--stroke-0, #202243)" stroke-width="0.894737" stroke-linecap="round" stroke-linejoin="round"/>
</g>
</svg>
