<svg width="170" height="64" viewBox="0 0 170 64" fill="none" xmlns="http://www.w3.org/2000/svg">
<mask id="path-1-inside-1_4217_276" fill="white">
<path d="M31.9421 0C25.6246 -7.5336e-08 19.4489 1.87337 14.196 5.38321C8.94317 8.89306 4.84907 13.8817 2.43145 19.7184C0.0138257 25.555 -0.618735 31.9775 0.613759 38.1737C1.84625 44.3699 4.88844 50.0614 9.35563 54.5286C13.8228 58.9958 19.5143 62.038 25.7105 63.2705C31.9067 64.5029 38.3292 63.8704 44.1658 61.4528C50.0025 59.0351 54.9911 54.941 58.501 49.6882C62.0108 44.4353 63.8842 38.2597 63.8842 31.9421H60.9607C60.9607 37.6814 59.2588 43.2919 56.0702 48.064C52.8816 52.836 48.3495 56.5554 43.047 58.7518C37.7446 60.9481 31.9099 61.5228 26.2809 60.4031C20.6518 59.2834 15.4812 56.5197 11.4229 52.4613C7.36455 48.403 4.6008 43.2324 3.48111 37.6033C2.36142 31.9743 2.93608 26.1396 5.13243 20.8372C7.32878 15.5347 11.0482 11.0026 15.8202 7.81404C20.5923 4.62543 26.2028 2.92352 31.9421 2.92352V0Z"/>
</mask>
<path d="M31.9421 0C25.6246 -7.5336e-08 19.4489 1.87337 14.196 5.38321C8.94317 8.89306 4.84907 13.8817 2.43145 19.7184C0.0138257 25.555 -0.618735 31.9775 0.613759 38.1737C1.84625 44.3699 4.88844 50.0614 9.35563 54.5286C13.8228 58.9958 19.5143 62.038 25.7105 63.2705C31.9067 64.5029 38.3292 63.8704 44.1658 61.4528C50.0025 59.0351 54.9911 54.941 58.501 49.6882C62.0108 44.4353 63.8842 38.2597 63.8842 31.9421H60.9607C60.9607 37.6814 59.2588 43.2919 56.0702 48.064C52.8816 52.836 48.3495 56.5554 43.047 58.7518C37.7446 60.9481 31.9099 61.5228 26.2809 60.4031C20.6518 59.2834 15.4812 56.5197 11.4229 52.4613C7.36455 48.403 4.6008 43.2324 3.48111 37.6033C2.36142 31.9743 2.93608 26.1396 5.13243 20.8372C7.32878 15.5347 11.0482 11.0026 15.8202 7.81404C20.5923 4.62543 26.2028 2.92352 31.9421 2.92352V0Z" stroke="#4285F4" stroke-width="3.10118" stroke-linecap="round" stroke-linejoin="round" mask="url(#path-1-inside-1_4217_276)"/>
<rect x="31.4769" width="0.930353" height="7.75294" rx="0.465176" fill="#4285F4"/>
<rect x="31.4769" y="56.1313" width="0.930353" height="7.75294" rx="0.465176" fill="#4285F4"/>
<rect y="32.3895" width="0.930353" height="7.75294" rx="0.465176" transform="rotate(-90 0 32.3895)" fill="#4285F4"/>
<rect x="56.1313" y="32.3895" width="0.930353" height="7.75294" rx="0.465176" transform="rotate(-90 56.1313 32.3895)" fill="#4285F4"/>
<circle cx="32.0196" cy="31.8646" r="4.10906" fill="#202243"/>
<path d="M22.1894 22.9053L32.2105 32.3" stroke="#202243" stroke-width="1.78947" stroke-linecap="round" stroke-linejoin="round"/>
<path d="M32.2105 32.3L51.0895 13.4211" stroke="#202243" stroke-width="0.894737" stroke-linecap="round" stroke-linejoin="round"/>
<path d="M79.9251 28.3196C79.2952 28.3196 78.8084 28.1478 78.4648 27.8042C78.1213 27.4463 77.9495 26.9524 77.9495 26.3225V16.2084H74.5781C74.0484 16.2084 73.6404 16.0724 73.3541 15.8004C73.0821 15.5141 72.9461 15.1133 72.9461 14.5979C72.9461 14.0682 73.0821 13.6674 73.3541 13.3954C73.6404 13.1234 74.0484 12.9874 74.5781 12.9874H85.272C85.8017 12.9874 86.2025 13.1234 86.4745 13.3954C86.7608 13.6674 86.904 14.0682 86.904 14.5979C86.904 15.1133 86.7608 15.5141 86.4745 15.8004C86.2025 16.0724 85.8017 16.2084 85.272 16.2084H81.9006V26.3225C81.9006 26.9524 81.736 27.4463 81.4067 27.8042C81.0775 28.1478 80.5836 28.3196 79.9251 28.3196ZM104.138 28.3196C103.508 28.3196 103.021 28.1478 102.678 27.8042C102.334 27.4463 102.162 26.9453 102.162 26.3011V14.8126C102.162 14.1541 102.334 13.6531 102.678 13.3095C103.021 12.9659 103.508 12.7941 104.138 12.7941C104.782 12.7941 105.269 12.9659 105.598 13.3095C105.942 13.6531 106.113 14.1541 106.113 14.8126V26.3011C106.113 26.9453 105.949 27.4463 105.619 27.8042C105.29 28.1478 104.796 28.3196 104.138 28.3196ZM124.635 28.3196C124.062 28.3196 123.619 28.1621 123.304 27.8472C123.003 27.5322 122.853 27.0884 122.853 26.5158V14.5979C122.853 14.0109 123.017 13.5672 123.347 13.2665C123.676 12.9516 124.141 12.7941 124.742 12.7941C125.243 12.7941 125.637 12.8943 125.923 13.0947C126.224 13.2808 126.496 13.5958 126.739 14.0396L131.356 22.3284H130.605L135.2 14.0396C135.458 13.5958 135.73 13.2808 136.016 13.0947C136.317 12.8943 136.717 12.7941 137.219 12.7941C137.791 12.7941 138.228 12.9516 138.528 13.2665C138.843 13.5672 139.001 14.0109 139.001 14.5979V26.5158C139.001 27.0884 138.851 27.5322 138.55 27.8472C138.249 28.1621 137.805 28.3196 137.219 28.3196C136.646 28.3196 136.202 28.1621 135.887 27.8472C135.587 27.5322 135.436 27.0884 135.436 26.5158V19.1288H135.887L132.43 25.1415C132.229 25.4564 132.015 25.6926 131.786 25.8501C131.571 26.0076 131.277 26.0863 130.905 26.0863C130.547 26.0863 130.254 26.0076 130.025 25.8501C129.796 25.6926 129.588 25.4564 129.402 25.1415L125.923 19.1074H126.417V26.5158C126.417 27.0884 126.267 27.5322 125.966 27.8472C125.666 28.1621 125.222 28.3196 124.635 28.3196ZM157.807 28.1263C157.134 28.1263 156.619 27.9545 156.261 27.6109C155.918 27.2531 155.746 26.7448 155.746 26.0863V15.0274C155.746 14.3688 155.918 13.8678 156.261 13.5242C156.619 13.1663 157.134 12.9874 157.807 12.9874H165.087C165.602 12.9874 165.989 13.1162 166.246 13.3739C166.504 13.6316 166.633 14.0038 166.633 14.4905C166.633 14.9916 166.504 15.3781 166.246 15.6501C165.989 15.9078 165.602 16.0366 165.087 16.0366H159.525V18.9141H164.614C165.115 18.9141 165.495 19.0429 165.753 19.3006C166.025 19.5583 166.161 19.9377 166.161 20.4387C166.161 20.9398 166.025 21.3192 165.753 21.5768C165.495 21.8345 165.115 21.9634 164.614 21.9634H159.525V25.0771H165.087C165.602 25.0771 165.989 25.2131 166.246 25.4851C166.504 25.7427 166.633 26.1149 166.633 26.6017C166.633 27.1027 166.504 27.4821 166.246 27.7398C165.989 27.9975 165.602 28.1263 165.087 28.1263H157.807Z" fill="#4285F4"/>
<path d="M79.3882 51.2552C79.1735 51.2552 79.0088 51.1979 78.8943 51.0834C78.7798 50.9545 78.7225 50.7827 78.7225 50.568V37.1684H73.5903C73.3899 37.1684 73.2324 37.1112 73.1179 36.9966C73.0034 36.8821 72.9461 36.7389 72.9461 36.5672C72.9461 36.3811 73.0034 36.2379 73.1179 36.1377C73.2324 36.0375 73.3899 35.9874 73.5903 35.9874H85.2076C85.408 35.9874 85.5583 36.0375 85.6585 36.1377C85.7731 36.2379 85.8303 36.3811 85.8303 36.5672C85.8303 36.7533 85.7731 36.9036 85.6585 37.0181C85.5583 37.1183 85.408 37.1684 85.2076 37.1684H80.0539V50.568C80.0539 50.7827 79.9966 50.9545 79.8821 51.0834C79.7819 51.1979 79.6173 51.2552 79.3882 51.2552ZM88.3803 51.2552C88.1799 51.2552 88.0224 51.1979 87.9079 51.0834C87.7934 50.9545 87.7361 50.7827 87.7361 50.568V36.6745C87.7361 36.4455 87.7934 36.2737 87.9079 36.1592C88.0367 36.0446 88.2014 35.9874 88.4018 35.9874H93.4481C95.0515 35.9874 96.2826 36.3596 97.1416 37.104C98.0005 37.8484 98.43 38.9078 98.43 40.2821C98.43 41.1697 98.2367 41.9356 97.8502 42.5798C97.4637 43.2097 96.8911 43.6893 96.1323 44.0185C95.3879 44.3478 94.4932 44.5124 93.4481 44.5124L93.6843 44.2333H93.985C94.529 44.2333 95.0014 44.3764 95.4022 44.6627C95.8174 44.9491 96.1896 45.4143 96.5188 46.0585L98.7951 50.2888C98.8953 50.4463 98.9382 50.6038 98.9239 50.7613C98.9239 50.9044 98.8738 51.0261 98.7736 51.1263C98.6734 51.2122 98.5445 51.2552 98.3871 51.2552C98.201 51.2552 98.0435 51.2122 97.9146 51.1263C97.8001 51.0404 97.6999 50.9187 97.614 50.7613L95.209 46.2733C94.8367 45.5861 94.4216 45.1352 93.9635 44.9204C93.5054 44.6914 92.8898 44.5768 92.1167 44.5768H89.046V50.568C89.046 50.7827 88.9887 50.9545 88.8742 51.0834C88.774 51.1979 88.6094 51.2552 88.3803 51.2552ZM89.046 43.4602H93.2763C94.5504 43.4602 95.5024 43.1954 96.1323 42.6657C96.7765 42.1217 97.0986 41.3272 97.0986 40.2821C97.0986 39.2514 96.7765 38.4712 96.1323 37.9415C95.5024 37.3975 94.5504 37.1255 93.2763 37.1255H89.046V43.4602ZM101.166 51.2552C100.979 51.2552 100.829 51.2122 100.715 51.1263C100.614 51.0547 100.557 50.9474 100.543 50.8042C100.543 50.6611 100.579 50.5036 100.65 50.3318L106.684 36.4598C106.784 36.2451 106.906 36.0947 107.049 36.0088C107.192 35.9086 107.336 35.8585 107.479 35.8585C107.651 35.8585 107.801 35.9086 107.93 36.0088C108.073 36.0947 108.187 36.2451 108.273 36.4598L114.307 50.3318C114.393 50.5036 114.429 50.6611 114.415 50.8042C114.415 50.9474 114.365 51.0547 114.264 51.1263C114.179 51.2122 114.043 51.2552 113.856 51.2552C113.656 51.2552 113.491 51.2051 113.363 51.1048C113.248 50.9903 113.148 50.84 113.062 50.6539L111.408 46.7672L112.117 47.0893H102.819L103.549 46.7672L101.896 50.6539C101.81 50.8686 101.702 51.0261 101.574 51.1263C101.459 51.2122 101.323 51.2552 101.166 51.2552ZM107.457 37.6194L103.807 46.2088L103.313 45.9512H111.623L111.172 46.2088L107.5 37.6194H107.457ZM123.282 51.2981C121.836 51.2981 120.598 50.9903 119.567 50.3747C118.536 49.7448 117.742 48.8501 117.184 47.6905C116.64 46.5309 116.368 45.1495 116.368 43.5461C116.368 42.3436 116.518 41.2699 116.819 40.3251C117.133 39.3659 117.584 38.557 118.171 37.8985C118.773 37.2257 119.503 36.7103 120.362 36.3524C121.235 35.9945 122.208 35.8156 123.282 35.8156C124.227 35.8156 125.107 35.9516 125.923 36.2236C126.739 36.4956 127.441 36.8964 128.028 37.4261C128.171 37.5549 128.264 37.6909 128.307 37.8341C128.35 37.9773 128.35 38.1133 128.307 38.2421C128.278 38.3566 128.214 38.4568 128.114 38.5427C128.013 38.6143 127.892 38.6501 127.749 38.6501C127.62 38.6358 127.477 38.5642 127.319 38.4354C126.775 37.9629 126.167 37.6122 125.494 37.3832C124.835 37.1541 124.105 37.0396 123.304 37.0396C122.115 37.0396 121.106 37.2973 120.276 37.8126C119.46 38.3137 118.837 39.0509 118.408 40.0244C117.992 40.9979 117.785 42.1718 117.785 43.5461C117.785 44.9347 117.992 46.1158 118.408 47.0893C118.837 48.0627 119.46 48.8072 120.276 49.3225C121.106 49.8236 122.115 50.0741 123.304 50.0741C124.091 50.0741 124.821 49.9596 125.494 49.7305C126.167 49.4872 126.782 49.1293 127.341 48.6568C127.498 48.528 127.641 48.4636 127.77 48.4636C127.913 48.4636 128.028 48.5065 128.114 48.5924C128.214 48.664 128.285 48.7642 128.328 48.8931C128.371 49.0076 128.371 49.1293 128.328 49.2581C128.3 49.3869 128.221 49.5086 128.092 49.6232C127.477 50.1815 126.761 50.6038 125.945 50.8901C125.143 51.1621 124.256 51.2981 123.282 51.2981ZM131.999 51.2552C131.798 51.2552 131.641 51.1979 131.526 51.0834C131.412 50.9545 131.355 50.7827 131.355 50.568V36.5242C131.355 36.3095 131.412 36.1448 131.526 36.0303C131.641 35.9158 131.798 35.8585 131.999 35.8585C132.213 35.8585 132.378 35.9158 132.493 36.0303C132.607 36.1448 132.664 36.3095 132.664 36.5242V42.9448H132.707L140.073 36.2451C140.23 36.1162 140.381 36.0232 140.524 35.9659C140.667 35.8943 140.817 35.8585 140.975 35.8585C141.175 35.8585 141.318 35.9086 141.404 36.0088C141.504 36.0947 141.547 36.2093 141.533 36.3524C141.519 36.4813 141.44 36.6101 141.297 36.7389L133.48 43.8038L133.523 42.9878L141.662 50.2459C141.834 50.4034 141.927 50.5608 141.941 50.7183C141.955 50.8758 141.905 51.0046 141.791 51.1048C141.691 51.2051 141.54 51.2552 141.34 51.2552C141.168 51.2552 141.018 51.2194 140.889 51.1478C140.774 51.0762 140.638 50.976 140.481 50.8472L132.707 43.9326H132.664V50.568C132.664 50.7827 132.607 50.9545 132.493 51.0834C132.392 51.1979 132.228 51.2552 131.999 51.2552ZM145.128 51.1263C144.899 51.1263 144.72 51.0619 144.591 50.9331C144.463 50.8042 144.398 50.6181 144.398 50.3747V36.7389C144.398 36.4956 144.463 36.3095 144.591 36.1806C144.72 36.0518 144.899 35.9874 145.128 35.9874H153.245C153.446 35.9874 153.596 36.0375 153.696 36.1377C153.796 36.2379 153.847 36.3739 153.847 36.5457C153.847 36.7461 153.796 36.8964 153.696 36.9966C153.596 37.0825 153.446 37.1255 153.245 37.1255H145.687V42.8804H152.816C153.016 42.8804 153.167 42.9305 153.267 43.0307C153.367 43.1166 153.417 43.2526 153.417 43.4387C153.417 43.6248 153.367 43.768 153.267 43.8682C153.167 43.9684 153.016 44.0185 152.816 44.0185H145.687V49.9882H153.245C153.446 49.9882 153.596 50.0383 153.696 50.1385C153.796 50.2244 153.847 50.3604 153.847 50.5465C153.847 50.7326 153.796 50.8758 153.696 50.976C153.596 51.0762 153.446 51.1263 153.245 51.1263H145.128ZM157.415 51.2552C157.214 51.2552 157.057 51.1979 156.942 51.0834C156.828 50.9545 156.771 50.7827 156.771 50.568V36.6745C156.771 36.4455 156.828 36.2737 156.942 36.1592C157.071 36.0446 157.236 35.9874 157.436 35.9874H162.483C164.086 35.9874 165.317 36.3596 166.176 37.104C167.035 37.8484 167.465 38.9078 167.465 40.2821C167.465 41.1697 167.271 41.9356 166.885 42.5798C166.498 43.2097 165.926 43.6893 165.167 44.0185C164.422 44.3478 163.528 44.5124 162.483 44.5124L162.719 44.2333H163.019C163.563 44.2333 164.036 44.3764 164.437 44.6627C164.852 44.9491 165.224 45.4143 165.553 46.0585L167.83 50.2888C167.93 50.4463 167.973 50.6038 167.958 50.7613C167.958 50.9044 167.908 51.0261 167.808 51.1263C167.708 51.2122 167.579 51.2552 167.422 51.2552C167.235 51.2552 167.078 51.2122 166.949 51.1263C166.835 51.0404 166.734 50.9187 166.649 50.7613L164.243 46.2733C163.871 45.5861 163.456 45.1352 162.998 44.9204C162.54 44.6914 161.924 44.5768 161.151 44.5768H158.081V50.568C158.081 50.7827 158.023 50.9545 157.909 51.0834C157.809 51.1979 157.644 51.2552 157.415 51.2552ZM158.081 43.4602H162.311C163.585 43.4602 164.537 43.1954 165.167 42.6657C165.811 42.1217 166.133 41.3272 166.133 40.2821C166.133 39.2514 165.811 38.4712 165.167 37.9415C164.537 37.3975 163.585 37.1255 162.311 37.1255H158.081V43.4602Z" fill="#202243"/>
</svg>
