<svg preserveAspectRatio="none" width="100%" height="100%" overflow="visible" style="display: block;" viewBox="0 0 50 50" fill="none" xmlns="http://www.w3.org/2000/svg">
<g id="Group">
<g id="Vector">
</g>
<path id="Vector_2" d="M10.4167 26.0417C10.4167 26.6937 11.3771 27.8292 13.6042 28.9437C16.4875 30.3854 20.5771 31.25 25 31.25C29.4229 31.25 33.5125 30.3854 36.3958 28.9437C38.6229 27.8292 39.5833 26.6937 39.5833 26.0417V21.5188C36.1458 23.6438 30.8896 25 25 25C19.1104 25 13.8542 23.6417 10.4167 21.5188V26.0417ZM39.5833 31.9354C36.1458 34.0604 30.8896 35.4167 25 35.4167C19.1104 35.4167 13.8542 34.0583 10.4167 31.9354V36.4583C10.4167 37.1104 11.3771 38.2458 13.6042 39.3604C16.4875 40.8021 20.5771 41.6667 25 41.6667C29.4229 41.6667 33.5125 40.8021 36.3958 39.3604C38.6229 38.2458 39.5833 37.1104 39.5833 36.4583V31.9354ZM6.25 36.4583V15.625C6.25 10.4479 14.6458 6.25 25 6.25C35.3542 6.25 43.75 10.4479 43.75 15.625V36.4583C43.75 41.6354 35.3542 45.8333 25 45.8333C14.6458 45.8333 6.25 41.6354 6.25 36.4583ZM25 20.8333C29.4229 20.8333 33.5125 19.9687 36.3958 18.5271C38.6229 17.4125 39.5833 16.2771 39.5833 15.625C39.5833 14.9729 38.6229 13.8375 36.3958 12.7229C33.5125 11.2812 29.4229 10.4167 25 10.4167C20.5771 10.4167 16.4875 11.2812 13.6042 12.7229C11.3771 13.8375 10.4167 14.9729 10.4167 15.625C10.4167 16.2771 11.3771 17.4125 13.6042 18.5271C16.4875 19.9687 20.5771 20.8333 25 20.8333Z" fill="var(--fill-0, #4285F4)"/>
</g>
</svg>
