<svg preserveAspectRatio="none" width="100%" height="100%" overflow="visible" style="display: block;" viewBox="0 0 50 50" fill="none" xmlns="http://www.w3.org/2000/svg">
<g id="Group">
<g id="Vector">
</g>
<path id="Vector_2" d="M39.5833 20.8333H41.6667C42.2192 20.8333 42.7491 21.0528 43.1398 21.4435C43.5305 21.8342 43.75 22.3641 43.75 22.9167V43.75C43.75 44.3025 43.5305 44.8324 43.1398 45.2231C42.7491 45.6138 42.2192 45.8333 41.6667 45.8333H8.33333C7.7808 45.8333 7.25089 45.6138 6.86019 45.2231C6.46949 44.8324 6.25 44.3025 6.25 43.75V22.9167C6.25 22.3641 6.46949 21.8342 6.86019 21.4435C7.25089 21.0528 7.7808 20.8333 8.33333 20.8333H10.4167V18.75C10.4167 16.8349 10.7939 14.9385 11.5268 13.1692C12.2596 11.3999 13.3338 9.79221 14.688 8.43803C16.0422 7.08384 17.6499 6.00964 19.4192 5.27676C21.1885 4.54388 23.0849 4.16667 25 4.16667C26.9151 4.16667 28.8115 4.54388 30.5808 5.27676C32.3501 6.00964 33.9578 7.08384 35.312 8.43803C36.6662 9.79221 37.7404 11.3999 38.4732 13.1692C39.2061 14.9385 39.5833 16.8349 39.5833 18.75V20.8333ZM10.4167 25V41.6667H39.5833V25H10.4167ZM22.9167 29.1667H27.0833V37.5H22.9167V29.1667ZM35.4167 20.8333V18.75C35.4167 15.9873 34.3192 13.3378 32.3657 11.3843C30.4122 9.4308 27.7627 8.33333 25 8.33333C22.2373 8.33333 19.5878 9.4308 17.6343 11.3843C15.6808 13.3378 14.5833 15.9873 14.5833 18.75V20.8333H35.4167Z" fill="var(--fill-0, #4285F4)"/>
</g>
</svg>
