<svg preserveAspectRatio="none" width="100%" height="100%" overflow="visible" style="display: block;" viewBox="0 0 50 50" fill="none" xmlns="http://www.w3.org/2000/svg">
<g id="Group">
<g id="Vector">
</g>
<path id="Vector_2" d="M22.9167 39.5833V18.75H8.33333V39.5833H22.9167ZM22.9167 14.5833V8.33333C22.9167 7.7808 23.1362 7.25089 23.5269 6.86019C23.9176 6.46949 24.4475 6.25 25 6.25H43.75C44.3025 6.25 44.8324 6.46949 45.2231 6.86019C45.6138 7.25089 45.8333 7.7808 45.8333 8.33333V41.6667C45.8333 42.2192 45.6138 42.7491 45.2231 43.1398C44.8324 43.5305 44.3025 43.75 43.75 43.75H6.25C5.69747 43.75 5.16756 43.5305 4.77686 43.1398C4.38616 42.7491 4.16667 42.2192 4.16667 41.6667V16.6667C4.16667 16.1141 4.38616 15.5842 4.77686 15.1935C5.16756 14.8028 5.69747 14.5833 6.25 14.5833H22.9167ZM27.0833 10.4167V39.5833H41.6667V10.4167H27.0833ZM10.4167 33.3333H20.8333V37.5H10.4167V33.3333ZM29.1667 33.3333H39.5833V37.5H29.1667V33.3333ZM29.1667 27.0833H39.5833V31.25H29.1667V27.0833ZM29.1667 20.8333H39.5833V25H29.1667V20.8333ZM10.4167 27.0833H20.8333V31.25H10.4167V27.0833Z" fill="var(--fill-0, #4285F4)"/>
</g>
</svg>
