<svg preserveAspectRatio="none" width="100%" height="100%" overflow="visible" style="display: block;" viewBox="0 0 100 30" fill="none" xmlns="http://www.w3.org/2000/svg">
<g id="Appnet Logo">
<g id="Logo Icon Container">
<ellipse id="Ellipse 9" cx="12.5106" cy="10.25" rx="5.3617" ry="5.25" fill="var(--fill-0, #4285F4)"/>
<ellipse id="Ellipse 10" cx="11.0212" cy="21.6251" rx="3.87234" ry="3.79167" fill="var(--fill-0, #202243)"/>
<ellipse id="Ellipse 11" cx="2.97867" cy="15.5" rx="2.97872" ry="2.91667" fill="var(--fill-0, #202243)"/>
</g>
<g id="appnet">
<path d="M34.8766 19.813V13.263C34.8766 9.81304 32.4766 7.56304 28.6979 7.56304C24.766 7.56304 22.366 10.263 22.366 13.688C22.366 17.213 24.8681 20.063 28.3915 20.063C29.9489 20.063 30.817 19.563 31.7106 18.913V16.313C30.9447 17.263 29.8979 17.963 28.6213 17.963C26.2724 17.963 24.6128 16.088 24.6128 13.863C24.6128 11.588 26.1702 9.66304 28.6468 9.66304C30.6894 9.66304 32.6298 10.813 32.6298 13.063V19.813H34.8766Z" fill="var(--fill-0, #202243)"/>
<path d="M39.1574 25.213V14.563C39.1574 11.263 40.9446 9.66304 43.0893 9.66304C45.4893 9.66304 47.1744 11.388 47.1744 13.838C47.1744 16.313 45.5659 17.963 43.1404 17.963C42.1191 17.963 40.868 17.463 40.051 16.913V19.213C41.1233 19.813 42.2978 20.063 43.5233 20.063C46.6638 20.063 49.4212 17.463 49.4212 14.113C49.4212 10.563 47.0723 7.56304 43.0893 7.56304C39.4893 7.56304 36.9106 10.213 36.9106 14.163V25.213H39.1574Z" fill="var(--fill-0, #202243)"/>
<path d="M53.3446 25.213V14.563C53.3446 11.263 55.1318 9.66304 57.2765 9.66304C59.6765 9.66304 61.3616 11.388 61.3616 13.838C61.3616 16.313 59.7531 17.963 57.3275 17.963C56.3063 17.963 55.0552 17.463 54.2382 16.913V19.213C55.3105 19.813 56.485 20.063 57.7105 20.063C60.8509 20.063 63.6084 17.463 63.6084 14.113C63.6084 10.563 61.2595 7.56304 57.2765 7.56304C53.6765 7.56304 51.0977 10.213 51.0977 14.163V25.213H53.3446Z" fill="var(--fill-0, #202243)"/>
<path d="M67.6594 19.813V12.813C67.6594 10.963 69.0381 9.66304 70.6466 9.66304C72.2551 9.66304 73.6339 10.963 73.6339 12.813V19.813H75.8807V12.813C75.8807 9.66304 73.6339 7.56304 70.6466 7.56304C67.6594 7.56304 65.4126 9.66304 65.4126 12.813V19.813H67.6594Z" fill="var(--fill-0, #202243)"/>
<path d="M90.0764 11.363C88.9275 9.03804 87.0126 7.56304 84.153 7.56304C80.7573 7.56304 77.7956 10.113 77.7956 13.813C77.7956 17.513 80.7573 20.063 84.153 20.063C87.6764 20.063 90.2807 17.663 90.536 14.488L88.2636 14.213C87.8041 16.413 86.8083 17.963 84.153 17.963C81.8296 17.963 80.1445 16.263 80.1445 13.813C80.1445 11.363 81.8296 9.66304 84.153 9.66304C85.5317 9.66304 86.17 10.063 86.936 10.813L80.8849 14.113L81.8041 15.863L90.0764 11.363Z" fill="var(--fill-0, #202243)"/>
<path d="M99.3614 7.81304H94.97V4.81304H92.7231V15.938C92.7231 18.313 94.0508 19.813 96.3487 19.813H99.3614V17.713H96.6551C95.5061 17.713 94.97 17.338 94.97 16.213V9.91304H99.3614V7.81304Z" fill="var(--fill-0, #202243)"/>
</g>
</g>
</svg>
